<?xml version="1.0" encoding="UTF-8"?>
<svg xmlns="http://www.w3.org/2000/svg" viewBox="0 0 44 44" role="img" aria-labelledby="title desc">
  <title id="title">Prepare for Offline tray icon</title>
  <desc id="desc">A solid black paw glyph on a transparent background for use as a macOS template image.</desc>
  <g fill="#000000">
    <ellipse cx="11" cy="18" rx="4.6" ry="6.4" transform="rotate(-24 11 18)"/>
    <ellipse cx="18" cy="11.6" rx="4.2" ry="6.2" transform="rotate(-8 18 11.6)"/>
    <ellipse cx="26" cy="11.6" rx="4.2" ry="6.2" transform="rotate(8 26 11.6)"/>
    <ellipse cx="33" cy="18" rx="4.6" ry="6.4" transform="rotate(24 33 18)"/>
    <path d="M22 21.2c-4.8 0-7.4 4.2-10.2 7.4-3 3.4-4.2 6.2-3 8.8 1.2 3.8 5.2 5.4 8.8 4.2 2-.6 3-1.8 4.4-1.8s2.4 1.2 4.4 1.8c3.6 1.2 7.6-.4 8.8-4.2 1.2-2.6 0-5.4-3-8.8-2.8-3.2-5.4-7.4-10.2-7.4Z"/>
  </g>
</svg>
